<svg width="1200" height="630" viewBox="0 0 1200 630" xmlns="http://www.w3.org/2000/svg" role="img" aria-label="Hidden tribute poster">
  <defs>
    <linearGradient id="bg" x1="0" y1="0" x2="1" y2="1">
      <stop offset="0%" stop-color="#090f1d"/>
      <stop offset="45%" stop-color="#10284d"/>
      <stop offset="100%" stop-color="#0a6ef2"/>
    </linearGradient>
    <radialGradient id="light" cx="0.82" cy="0.2" r="0.7">
      <stop offset="0%" stop-color="#99c8ff" stop-opacity="0.8"/>
      <stop offset="70%" stop-color="#99c8ff" stop-opacity="0"/>
    </radialGradient>
    <linearGradient id="line" x1="0" y1="0" x2="1" y2="1">
      <stop offset="0%" stop-color="#d8ebff" stop-opacity="0.8"/>
      <stop offset="100%" stop-color="#9cc8ff" stop-opacity="0.18"/>
    </linearGradient>
  </defs>

  <rect width="1200" height="630" fill="url(#bg)"/>
  <rect width="1200" height="630" fill="url(#light)"/>

  <g opacity="0.2">
    <path d="M0 520 C220 450, 420 600, 630 520 C820 450, 1020 560, 1200 500" stroke="url(#line)" stroke-width="2" fill="none"/>
    <path d="M0 560 C180 500, 420 620, 700 560 C940 510, 1080 580, 1200 560" stroke="url(#line)" stroke-width="2" fill="none"/>
  </g>

  <g transform="translate(760 90)">
    <ellipse cx="170" cy="150" rx="150" ry="180" fill="#0a1730" fill-opacity="0.55"/>
    <path d="M90 300 C120 220, 220 220, 250 300 L250 410 L90 410 Z" fill="#071227"/>
    <path d="M115 178 C115 128, 148 98, 183 98 C222 98, 252 128, 252 178 C252 230, 220 260, 183 260 C146 260, 115 230, 115 178 Z" fill="#0b203f"/>
    <path d="M130 165 C150 120, 205 120, 232 165" stroke="#7bb4ff" stroke-width="6" stroke-linecap="round"/>
    <rect x="118" y="205" width="128" height="8" rx="4" fill="#9dc9ff" fill-opacity="0.7"/>
    <rect x="85" y="318" width="170" height="84" rx="18" fill="#0f2c56"/>
    <rect x="105" y="336" width="130" height="8" rx="4" fill="#9bc7ff" fill-opacity="0.7"/>
  </g>

  <text x="70" y="190" fill="#dbeeff" font-family="'SF Pro Display', 'Helvetica Neue', Arial, sans-serif" font-size="74" font-weight="700" letter-spacing="2">
    HIDDEN OG ZONE
  </text>
  <text x="70" y="270" fill="#b7d7ff" font-family="'SF Pro Text', 'Helvetica Neue', Arial, sans-serif" font-size="33" font-weight="500" opacity="0.9">
    Secret tribute card unlocked inside YeahDays Lab
  </text>
  <text x="70" y="348" fill="#90beff" font-family="'SF Pro Text', 'Helvetica Neue', Arial, sans-serif" font-size="24" opacity="0.9">
    Premium vault visual — local asset
  </text>

  <rect x="70" y="392" width="410" height="84" rx="24" fill="#0a3d87" fill-opacity="0.45" stroke="#92c3ff" stroke-opacity="0.45"/>
  <text x="96" y="444" fill="#d7ebff" font-family="'SF Pro Display', 'Helvetica Neue', Arial, sans-serif" font-size="34" font-weight="700">
    OG STYLE TRIBUTE
  </text>
</svg>
